<?xml version="1.0" encoding="UTF-8" standalone="no"?>
<svg
   id="operations-pin"
   enable-background="new 0 0 100 100"
   xml:space="preserve"
   height="92"
   width="49.901844"
   version="1.1"
   y="0px"
   x="0px"
   viewBox="0 0 49.901843 91.999999"
   xmlns="http://www.w3.org/2000/svg"><defs
     id="defs164" /><path
     id="path1202"
     style="font-variation-settings:'wght' 800;fill:#d40000;fill-opacity:1;stroke-width:2.22216;stroke-linejoin:round"
     d="m 24.950844,0 c -39.434763,0 -26.4756299,48.80022 0,92 26.475863,-43.199911 39.434949,-91.99999989999999 0,-92 z m 0.947539,6.2291302 c -4.070259,0.9337609 -7.106031,4.5784248 -7.106031,8.9314788 0,5.060424 4.102745,9.16256 9.163572,9.16256 4.718057,0 8.603658,-3.565221 9.108072,-8.149433 l 0.0071,-0.05248 c 0.02939,0.327274 0.04441,0.658739 0.04441,0.993956 0,6.012459 -4.873842,10.886093 -10.887102,10.886093 -6.012459,0 -10.886095,-4.873634 -10.886095,-10.886093 0,-5.895689 4.686507,-10.6973769 10.53695,-10.8820562 z m -7.703414,2.0484557 c -2.706359,1.9858851 -4.424872,5.6427111 -4.424872,9.4683181 0,6.905312 5.597954,12.409824 12.503669,12.409824 6.906108,0 12.504677,-5.589276 12.504677,-12.494587 0,-1.635375 -0.313953,-3.192245 -0.884975,-4.623666 -0.0027,-0.0029 -0.0053,-0.0062 -0.008,-0.009 l 0.003,-0.004 c 0.0017,0.0042 0.0033,0.0088 0.0051,0.0131 2.998932,3.208267 4.835575,7.519532 4.835574,12.257451 0,9.913128 -8.036618,17.953779 -17.949743,17.953779 -9.913128,0 -17.9497419,-8.028938 -17.9497419,-17.94167 0,-3.017748 0.744505,-5.845304 2.059556,-8.341161 l 0.002,0.02322 c -0.06513,0.484557 -0.0989,0.989011 -0.0989,1.491441 0,2.751637 1.007323,5.683826 2.6730839,7.272531 -0.653788,-1.588705 -1.014136,-3.33979 -1.014136,-5.169582 3.96e-4,-5.422651 3.162743,-10.320003 7.743777,-12.3058862 z m 17.566289,5.1635281 h 0.002 c -3.84e-4,0.0013 -6.2e-4,0.0027 -9.89e-4,0.004 0.183553,0.791059 0.281538,1.187412 0.281538,1.896087 0,4.160823 -3.373277,7.390596 -7.534897,7.390596 -2.977324,0 -5.548124,-1.730698 -6.772021,-4.237181 -0.0068,-0.0046 -0.01436,-0.0085 -0.02119,-0.01311 l -0.02825,-0.08274 c 0.01536,0.03261 0.03366,0.0635 0.04944,0.09585 1.465095,0.984824 3.228635,1.639775 5.12619,1.639775 4.266087,0 7.854713,-3.116344 8.89919,-6.689277 -3.8e-4,-0.0016 -6.2e-4,-0.0024 -9.89e-4,-0.004 z" /><path
     id="path445"
     style="font-variation-settings:'wght' 800;stroke-width:3.63142;stroke-linejoin:round"
     d="m 152.8409,-47.506858 c -76.327081,-2e-6 -51.24432,67.333549 0,126.939453 51.24476,-59.606082 76.32743,-126.93945 0,-126.939453 z m 0,126.939453 c -208.783847,-39.250001 -104.391931,-19.625 0,0 z" /></svg>
