<svg id="svg2" xmlns:rdf="http://www.w3.org/1999/02/22-rdf-syntax-ns#" xmlns="http://www.w3.org/2000/svg" enable-background="new 0 0 100 100" xml:space="preserve" height="100%" width="100%" version="1.1" y="0px" x="0px" xmlns:cc="http://creativecommons.org/ns#" xmlns:dc="http://purl.org/dc/elements/1.1/" viewBox="0 0 90.386 93.206"><metadata id="metadata14"><rdf:RDF><cc:Work rdf:about=""><dc:format>image/svg+xml</dc:format><dc:type rdf:resource="http://purl.org/dc/dcmitype/StillImage"/><dc:title/></cc:Work></rdf:RDF></metadata><path id="path4" style="fill:#d40000;" d="m78.192,17.12c7.563,8.08,12.194,18.943,12.194,30.883,0,24.959-20.234,45.203-45.193,45.203s-45.193-20.215-45.193-45.173c0-7.598,1.875-14.716,5.186-21l0.003,0.057c-0.164,1.22-0.249,2.492-0.249,3.757,0,6.928,2.537,14.309,6.731,18.309h-0.002c-1.646-4-2.552-8.408-2.552-13.015,0.001-13.653,7.963-25.984,19.497-30.984h-0.001c-6.814,5-11.14,14.207-11.14,23.839,0,17.386,14.095,31.247,31.482,31.247,17.388,0,31.483-14.073,31.483-31.459,0-4.13-0.795-8.062-2.241-11.675m-2.075,7.929c-1.27,11.542-11.053,20.519-22.932,20.519-12.742,0-23.071-10.329-23.071-23.07,0-10.96,7.643-20.136,17.891-22.487l-0.05,0.01c-14.73,0.465-26.529,12.554-26.529,27.398,0,15.138,12.271,27.409,27.409,27.409,15.14,0,27.412-12.271,27.412-27.409,0-0.844-0.039-1.678-0.113-2.502m-38.732,5.734c3.032,6.443,9.582,10.91,17.175,10.91,10.478,0,18.972-8.133,18.972-18.609,0-1.788-0.247-2.784-0.711-4.784h0.003c-2.626,9-11.665,16.854-22.41,16.854-4.8,0-9.259-1.663-12.958-4.162"/></svg>
