<svg id="svg5717" xmlns:rdf="http://www.w3.org/1999/02/22-rdf-syntax-ns#" xmlns="http://www.w3.org/2000/svg" height="100%" width="100%" version="1.1" y="0px" x="0px" xmlns:cc="http://creativecommons.org/ns#" xmlns:dc="http://purl.org/dc/elements/1.1/" viewBox="0 0 73.179943 76.077746">
 <metadata id="metadata5751">
  <rdf:RDF>
   <cc:Work rdf:about="">
    <dc:format>image/svg+xml</dc:format>
    <dc:type rdf:resource="http://purl.org/dc/dcmitype/StillImage"/>
    <dc:title/>
   </cc:Work>
  </rdf:RDF>
 </metadata>
 <path id="path5719" style="fill:#d40000;" d="m20.198,41.005c-0.34878,0.0506-0.73933,0.37427-0.99586,0.8733l-9.3455,18.202c-0.78626,2.1227,0.98093,7.6429,1.624,11.215,0.00049,0.0051-0.000491,0.01089,0,0.01529,0.27291,1.4763,1.6759,2.4533,3.1408,2.1909s2.4321-1.6615,2.1756-3.1408v-0.01529l-1.4248-8.0588c3.8181-0.35177,3.8233-0.30316,6.159-0.2911l-0.42899,11.046c-0.02147,0.56069,0.41985,1.0204,0.98054,1.0418l3.3706,0.12257c0.56069,0.02147,1.0357-0.40453,1.0571-0.96522l0.50559-13.023c0.03888-1.0159-0.47665-1.9209-1.2716-2.4207-0.01226-0.0077-0.01829-0.02314-0.03063-0.03063-0.0033-0.0029-0.01206,0.0029-0.01529,0-0.33293-0.27668-0.72516-0.48596-1.1797-0.5822l-0.01529-0.01529-3.8149-0.78137c2.1994-3.7021,4.1093-8.179,5.6228-10.847,0.34204-0.66537,0.30187-1.3603-0.09193-1.5627l-5.6994-2.9263c-0.09845-0.05062-0.20548-0.06288-0.32174-0.04595z"/>
 <path id="path5721" style="fill:#d40000;" d="m21.883,37.733c0,2.7968,2.2673,5.0641,5.0641,5.0641s5.0641-2.2673,5.0641-5.0641-2.2673-5.0641-5.0641-5.0641-5.0641,2.2673-5.0641,5.0641z"/>
 <path id="path5723" style="fill:#d40000;" d="m25.409,45.053c0.46839-0.30893,1.0919-0.18101,1.4008,0.28739l4.9178,7.4564,0.0253,0.03836c0.48106,0.77276,0.26013,1.7922-0.50426,2.2964-0.76442,0.50417-1.7885,0.30586-2.3095-0.4406-0.0086-0.01229-0.01701-0.0258-0.0253-0.03836l-4.9178-7.4564c-0.30892-0.4684-0.18101-1.0919,0.28739-1.4009l1.1255-0.74231z"/>
 <path id="path5725" style="fill:#d40000;" d="m29.232,53.607c0.19889-0.88778,1.066-1.4545,1.9532-1.2895,0.02045,0.004,0.03937,0.0088,0.05978,0.01339l8.4918,1.9024c0.54752,0.12267,0.88832,0.66026,0.76567,1.2078l-0.29475,1.3156c-0.12266,0.54752-0.66026,0.88833-1.2078,0.76566l-8.4918-1.9024c-0.0205-0.0045-0.03967-0.0082-0.05978-0.01339-0.87272-0.2293-1.4152-1.1118-1.2163-1.9996z"/>
 <path id="path5727" style="fill:#d40000;" d="m16.784,70.954c0.0068,1.4934-1.2063,2.702-2.7149,2.7089l-13.038,0.059c-0.56105,0.002-1.0132-0.461-1.0158-1.022l-0.015297-3.371c-0.00245-0.561,0.44548-1.013,1.0066-1.016l13.038-0.05924c1.5085-0.0069,2.7326,1.206,2.7394,2.6994z"/>
 <path id="path5729" style="fill:#d40000;" d="m24.818,44.401c0.2402-0.50708,0.83965-0.72114,1.3467-0.48092l8.0722,3.8239,0.04157,0.01971c0.81212,0.41114,1.152,1.3973,0.76005,2.2249-0.39203,0.82755-1.3704,1.1892-2.203,0.82124-0.01368-0.0061-0.02795-0.01324-0.04152-0.01971l-8.072-3.823c-0.508-0.241-0.722-0.84-0.481-1.347l0.5772-1.2184z"/>
 <path id="path5731" style="fill:#d40000;" d="m32.581,49.343c-0.0817-0.90611,0.57097-1.7105,1.4661-1.8243,0.02064-0.0024,0.04019-0.0033,0.06101-0.0055l8.6672-0.78146c0.55883-0.05036,1.0475,0.35747,1.0979,0.91629l0.12107,1.3428c0.05035,0.55883-0.35747,1.0475-0.9163,1.0979l-8.6671,0.78146c-0.02083,0.002-0.04019,0.0045-0.06101,0.0055-0.90106,0.04814-1.6871-0.62655-1.7688-1.5327z"/>
 <path id="path5733" style="fill:#d40000;" d="m41.366,48.918s2.1238-1.4503,3.2208-1.3867c1.2852,0.07453,2.2497,1.9528,3.5361,1.979,1.9414,0.0395,3.467-2.7285,5.4084-2.7679,2.1099-0.04282,3.8399,2.8437,5.9492,2.7679,1.3724-0.04926,2.4133-2.0365,3.7859-2.076,1.5101-0.04338,3.5187,1.4738,4.2411,2.0424,0,0-1.9273,5.0325-2.3708,6.7588-0.51491-0.40752-2.6031-1.9319-4.0336-1.8813-1.3724,0.04857-2.4134,2.0267-3.7859,2.076-2.1093,0.07575-3.8394-2.8108-5.9492-2.7679-1.9414,0.03946-3.4765,2.5041-5.4084,2.7679-1.1287,0.15414-2.213-0.76722-3.3573-0.72716-1.616,0.05656-4.6577,1.3558-4.6577,1.3558z"/>
 <path id="path5735" style="fill:#d40000;" d="m52.235,57.289c0.316-0.33902,0.51671-0.74612,0.51671-1.0327,0-0.5374-0.43896-1.0539-1.0332-1.5486-0.05956,0.43028,0.25744,1.0756,0,1.5486-0.19971,0.35003-0.51671,0.74612-0.51671,1.0327,0,0.38407,0.14298,0.7341,0.51671,1.0324,0.05656-0.14365,0.1555-0.61464,0.51654-1.0324zm2.0559-1.5584c0.02019,1.5019-0.65766,2.4464-3.1006,3.6215-2.1204,1.0199-1.017,4.3848-1.017,4.6384,0,0.06473-1.1607-1.3905-3.1006-0.49609,0.05856-0.02603,1.8746,1.0523,2.0588,3.0758,0.02268,0.24743,0.07389,0.49064,0.12402,0.71933l-2.282-1.0418a1.5876,1.5876,0,0,0,-0.59531,-0.14883,1.5876,1.5876,0,0,0,-0.32246,0,1.5876,1.5876,0,0,0,-0.39687,3.0758l4.0927,1.8603-4.0679,1.8107a1.5943,1.5943,0,1,0,1.265,2.9269l6.6972-2.9765,6.7964,3.0758a1.5876,1.5876,0,1,0,1.3146,-2.8773l-4.2416-1.9347,3.0013-1.3394a1.5876,1.5876,0,0,0,-0.5705,-3.0758,1.5876,1.5876,0,0,0,-0.34726,0.04961c0.01701-0.51563-0.03335-1.0591-0.14882-1.6619,0.0044,0.01636-1.2948,2.0904-2.0588,1.0418-1.0039-1.3761,1.8236-3.2243,0.5209-5.1593-0.43312-0.64151-1.302-1.1215-2.0588-1.0418,0.24042,0.47633,0.4064,2.3626-1.0418,2.5797-0.8619,0.12964-1.4919-1.2817,0-3.1006,0.96118-1.1751-0.51939-3.5606-0.52089-3.6215zm0.52089,9.3017c-0.59546,1.0698,0.58081,1.2272,1.0418,2.0588,0.36305,0.65302,0.6479,2.6794-2.0588,2.5797-2.1166-0.07992-2.2661-2.3328-1.0418-3.5966,0.79817-0.82703,2.0511-1.0254,2.0588-1.0418z"/>
 <path id="path5737" style="fill-rule:nonzero;color:#000000;enable-background:accumulate;fill:#d40000;" d="m49.225,15.831c-0.75448-0.99138,1.6873-1.7478,0.23324-0.08503z" visibility="visible" display="inline" overflow="visible"/>
 <path id="path5739" style="fill-rule:nonzero;color:#000000;enable-background:accumulate;fill:#d40000;" d="m43.69,23.095c-0.78894-0.41386-1.6374-2.071-1.3223-2.89,0.3151-0.81898,1.168-0.83714,1.9163-0.82627,0.74835,0.01087,1.3254,1.4814,2.1787,1.0154,0.85335-0.46597,0.01807-2.5945,0.46187-3.3988s0.77491-1.7817,1.5956-1.337c0.82071,0.44473-0.80285,2.6976-0.4207,3.4938,0.38215,0.79623,1.3939,0.20972,1.5119,0.93952,0.11804,0.72979-1.0238,1.6042-1.6987,2.0412-0.67493,0.43702-1.3841,0.4232-2.0887,0.58371-0.70462,0.16051-1.345,0.79215-2.134,0.37829z" visibility="visible" display="inline" overflow="visible"/>
 <path id="path5741" style="fill-rule:nonzero;color:#000000;enable-background:accumulate;fill:#d40000;" d="m48.337,0c-2.8482,0.1427-4.2194,3.189-5.7171,5.1754-1.1635,2.8334-4.4996,2.1678-6.4851,3.7898-2.605,1.601-1.5871,4.993,0.79376,6.2043,1.8098,1.5263,4.5069,2.0452,6.2981,0.22972,1.6409,0.06002,2.8727,2.15,4.8348,2.019,1.7677,0.26554,3.631-0.05752,5.1771-0.96479,1.1621,1.905,0.19724,4.1246-1.8926,4.7144-1.9718,1.2276-0.08499,4.0505-2.608,4.767-2.3523,0.85067-1.8136,3.3326-0.0021,4.4234,1.6627,1.2026,1.4618,3.1934,2.3354,4.6095,1.9607,1.482,2.9622-0.88771,2.9212-2.5665-0.09739-1.9298,2.2934-3.8176,0.88928-5.7207,2.544,0.14273,3.2951-3.5708,3.1186-4.5002,1.2347,0.72467,3.5057-1.622,3.984-0.27249-1.4657,0.97476-1.7727,3.5639,0.33094,3.9399,1.8148-0.14252,2.1016-2.1025,3.7442-2.5515,1.1812-1.8404,3.631-0.4453,5.0185-2.0941,2.5561-1.9351,2.8669-6.098,0.45787-8.2778-2.027-1.9825-5.8961-2.2147-7.6827,0.18332-2.0236,0.49244-3.1695-3.0302-5.4503-2.1148-2.4271,1.4771-0.46453-1.9879-1.2458-3.152-0.423-2.2255-1.918-4.0663-3.708-5.3631-1.357-1.3596-3.141-2.45-5.112-2.4789zm3.1529,35.954c-2.8587,0.23196,0.05129,4.419,1.2708,1.6952,0.27622-0.80972-0.4589-1.6663-1.2708-1.6952zm3.4709,1.8547c-3.0211,1.4163,2.8029,2.5587,0.27008,0.0535l-0.27008-0.0535zm-2.5435,1.8812c-2.8124-0.02344-0.96053,5.8154,0.72986,3.2319,0.94835-1.1286,1.2284-3.0398-0.72986-3.2319z" visibility="visible" display="inline" overflow="visible"/>
</svg>
