<svg id="svg4455" xmlns:rdf="http://www.w3.org/1999/02/22-rdf-syntax-ns#" xmlns="http://www.w3.org/2000/svg" enable-background="new 0 0 68.635 99.848" xml:space="preserve" height="100%" width="100%" version="1.0" y="0px" x="0px" xmlns:cc="http://creativecommons.org/ns#" xmlns:dc="http://purl.org/dc/elements/1.1/" viewBox="0 0 68.634421 99.847998"><metadata id="metadata4473"><rdf:RDF><cc:Work rdf:about=""><dc:format>image/svg+xml</dc:format><dc:type rdf:resource="http://purl.org/dc/dcmitype/StillImage"/><dc:title/></cc:Work></rdf:RDF></metadata><path id="path4457" style="fill:#d40000;" d="M46.68,64.517c27.819-45.079-19.475-64.517-19.475-64.517,12.164,10.145,16.409,44.657-5.868,45.114-15.803,0.324-13.06-16.622-11.361-20.197-1.779,2.521-13.748,23.712-8.775,45.086,4.974,21.375,35.042,29.845,35.042,29.845-6.22-18.635,5.673-27.678,10.437-35.331z"/><path id="path4459" style="fill:#d40000;" d="m59.161,38.038c2.465,4.582-2.596,23.759-9.987,32.491-13.705,16.23-9.383,24.461-8.313,28.29,0.169-0.4,1.947-2.261,14.586-10.921,27.324-18.675,3.714-49.86,3.714-49.86z"/><path id="path4461" d="m40.893,98.928c-0.009-0.035-0.022-0.072-0.031-0.109-0.049,0.112,0.031,0.109,0.031,0.109z"/><path id="path4463" d="m9.9757,24.917c0.146-0.209,0.237-0.328,0.237-0.328-0.1,0.077-0.174,0.19-0.237,0.328z"/></svg>
