<svg id="svg5063" xmlns:rdf="http://www.w3.org/1999/02/22-rdf-syntax-ns#" xmlns="http://www.w3.org/2000/svg" enable-background="new 0 0 100 100" xml:space="preserve" height="100%" width="100%" version="1.1" y="0px" x="0px" xmlns:cc="http://creativecommons.org/ns#" xmlns:dc="http://purl.org/dc/elements/1.1/" viewBox="0 0 87.568 98.417"><metadata id="metadata5075"><rdf:RDF><cc:Work rdf:about=""><dc:format>image/svg+xml</dc:format><dc:type rdf:resource="http://purl.org/dc/dcmitype/StillImage"/><dc:title/></cc:Work></rdf:RDF></metadata><path id="path5065" style="fill:#d40000;" d="M85.341,11.966h-3.711v-6.4c0-1.229-0.998-2.226-2.227-2.226h-4.035c-1.229,0-2.227,0.997-2.227,2.226v6.4h-10.921v-2.783c0-0.323-0.072-0.628-0.195-0.905h0.404v0.487c0,1.229,0.996,2.227,2.227,2.227h0.557c1.229,0,2.227-0.997,2.227-2.227v-6.54c-0.002-1.228-1-2.225-2.228-2.225h-0.557c-1.23,0-2.227,0.997-2.227,2.226v0.487h-37.289v-0.487c0-1.229-0.996-2.226-2.226-2.226h-0.557c-1.229,0-2.227,0.997-2.227,2.226v6.54c0,1.229,0.998,2.227,2.227,2.227h0.557c1.23,0,2.227-0.997,2.227-2.227v-0.488h0.404c-0.123,0.277-0.195,0.582-0.195,0.905v2.783h-10.922v-6.4c0-1.229-0.996-2.226-2.227-2.226h-4.035c-1.229,0-2.227,0.997-2.227,2.226v6.4h-3.711c-1.229,0-2.227,0.997-2.227,2.226v71.56h1.762c0.15,0.032,0.305,0.051,0.465,0.051h7.051v10.387c0,1.23,0.998,2.227,2.227,2.227h4.824c1.229,0,2.225-0.996,2.225-2.227v-10.387h50.46v10.387c0,1.23,0.996,2.227,2.227,2.227h4.822c1.229,0,2.227-0.996,2.227-2.227v-10.387h7.051c0.16,0,0.314-0.019,0.465-0.051h1.762v-71.56c-0.001-1.229-0.999-2.226-2.227-2.226zm-28.77-3.688c-0.123,0.277-0.195,0.582-0.195,0.905v2.783h-25.184v-2.783c0-0.323-0.072-0.628-0.195-0.905h25.574zm-45.74,64.676c-2.701,0-4.893-2.191-4.893-4.893,0-2.703,2.191-4.894,4.893-4.894,2.703,0,4.893,2.19,4.893,4.894-0.001,2.702-2.19,4.893-4.893,4.893zm30.355-28.152h-35.248v-24.906h35.248v24.906zm5.196,0v-24.906h35.248v24.906h-35.248zm30.355,28.152c-2.701,0-4.893-2.191-4.893-4.893,0-2.703,2.191-4.894,4.893-4.894s4.893,2.19,4.893,4.894c0,2.702-2.192,4.893-4.893,4.893z"/></svg>
